<svg width="26" height="26" viewBox="0 0 26 26" fill="none" xmlns="http://www.w3.org/2000/svg">
<path d="M16.4667 7.92858L7.92837 16.4669C7.65013 16.7451 7.65013 17.1963 7.92837 17.4745L7.98141 17.5275C8.25966 17.8058 8.71079 17.8058 8.98903 17.5276L17.5273 8.98924C17.8056 8.71099 17.8056 8.25986 17.5273 7.98161L17.4743 7.92858C17.1961 7.65033 16.7449 7.65033 16.4667 7.92858Z" fill="#1A1A1A"/>
<path d="M7.92833 8.98912L16.4666 17.5274C16.7449 17.8057 17.196 17.8057 17.4743 17.5274L17.5273 17.4744C17.8056 17.1962 17.8056 16.745 17.5273 16.4668L8.98899 7.92846C8.71074 7.65021 8.25961 7.65021 7.98136 7.92846L7.92833 7.9815C7.65008 8.25974 7.65008 8.71087 7.92833 8.98912Z" fill="#1A1A1A"/>
</svg>
